<?xml version="1.0" encoding="UTF-8" standalone="no"?>
<svg
   fill="white"
   xmlns:dc="http://purl.org/dc/elements/1.1/"
   xmlns:cc="http://creativecommons.org/ns#"
   xmlns:rdf="http://www.w3.org/1999/02/22-rdf-syntax-ns#"
   xmlns:svg="http://www.w3.org/2000/svg"
   xmlns="http://www.w3.org/2000/svg"
   xmlns:sodipodi="http://sodipodi.sourceforge.net/DTD/sodipodi-0.dtd"
   xmlns:inkscape="http://www.inkscape.org/namespaces/inkscape"
   id="starlink-logo"
   x="0px"
   y="0px"
   viewBox="0 0 1032 524"
   version="1.1"
   sodipodi:docname="sl.svg"
   width="1032"
   height="524"
   inkscape:version="0.48.2 r9819">
  <metadata
     id="metadata31">
    <rdf:RDF>
      <cc:Work
         rdf:about="">
        <dc:format>image/svg+xml</dc:format>
        <dc:type
           rdf:resource="http://purl.org/dc/dcmitype/StillImage" />
        <dc:title />
      </cc:Work>
    </rdf:RDF>
  </metadata>
  <defs
     id="defs29" />
  <sodipodi:namedview
     pagecolor="#ffffff"
     bordercolor="#666666"
     borderopacity="1"
     objecttolerance="10"
     gridtolerance="10"
     guidetolerance="10"
     inkscape:pageopacity="0"
     inkscape:pageshadow="2"
     inkscape:window-width="1280"
     inkscape:window-height="968"
     id="namedview27"
     showgrid="false"
     inkscape:zoom="0.47934783"
     inkscape:cx="726.22374"
     inkscape:cy="-161.12401"
     inkscape:window-x="-4"
     inkscape:window-y="-4"
     inkscape:window-maximized="1"
     inkscape:current-layer="starlink-logo"
     fit-margin-left="0" />
  <clipPath
     id="mask_x1">
    <circle
       cx="275"
       cy="85"
       r="200"
       id="circle2"
       sodipodi:cx="275"
       sodipodi:cy="85"
       sodipodi:rx="200"
       sodipodi:ry="200" />
  </clipPath>
  <clipPath
     id="mask_x2">
    <circle
       cx="230"
       cy="90"
       r="80"
       id="circle5"
       sodipodi:cx="230"
       sodipodi:cy="90"
       sodipodi:rx="80"
       sodipodi:ry="80" />
  </clipPath>
  <g
     id="g853"
     transform="matrix(3.3783784,0,0,3.3783784,-530.93388,7.7531848)">
    <g
       id="letters">
      <path
         style="visibility:inherit"
         d="m 164,142.2 h 2.8 c 0.1,0.9 0.4,1.5 0.8,1.8 0.4,0.4 1.1,0.5 2,0.5 1.7,0 2.5,-0.7 2.5,-2 0,-0.6 -0.2,-1.1 -0.5,-1.4 -0.3,-0.3 -0.9,-0.5 -1.6,-0.7 l -1.5,-0.2 c -2.8,-0.5 -4.2,-1.9 -4.2,-4.3 0,-1.4 0.5,-2.6 1.4,-3.4 1,-0.8 2.2,-1.3 3.8,-1.3 1.5,0 2.7,0.4 3.6,1.2 0.9,0.8 1.4,2 1.5,3.4 h -2.8 c 0,-0.8 -0.3,-1.3 -0.7,-1.6 -0.4,-0.3 -1,-0.5 -1.7,-0.5 -0.8,0 -1.3,0.2 -1.7,0.5 -0.4,0.3 -0.6,0.8 -0.6,1.5 0,0.5 0.2,1 0.5,1.3 0.3,0.3 0.9,0.5 1.6,0.7 l 1.6,0.3 c 2.7,0.5 4,1.9 4,4.4 0,1.6 -0.5,2.8 -1.5,3.6 -1,0.8 -2.3,1.2 -4,1.2 -1.7,0 -3,-0.4 -3.9,-1.2 -0.8,-1 -1.3,-2.2 -1.4,-3.8 z"
         class="letter"
         id="letter-s"
         inkscape:connector-curvature="0" />
      <path
         style="visibility:inherit"
         d="m 188.5,134 v 13 h -3 v -13 h -4 v -2.6 h 10.9 v 2.6 z"
         class="letter"
         id="letter-t"
         inkscape:connector-curvature="0" />
      <path
         style="visibility:inherit"
         d="m 200.9,143.9 -0.9,3 h -3.1 l 5.5,-15.5 h 2.4 l 5.5,15.5 h -3.1 l -0.9,-3 z m 2.7,-8.4 -1.9,6 h 3.8 z"
         class="letter"
         id="letter-a"
         inkscape:connector-curvature="0" />
      <path
         style="visibility:inherit"
         d="m 220.3,140.7 v 6.3 h -2.9 v -15.5 h 5.9 c 1.5,0 2.7,0.4 3.6,1.2 0.9,0.8 1.4,2 1.4,3.4 0,1 -0.2,1.9 -0.7,2.6 -0.5,0.7 -1.2,1.2 -2,1.6 l 3.4,6.8 h -3.4 l -2.9,-6.3 h -2.4 z m 2.8,-2.5 c 0.7,0 1.2,-0.2 1.6,-0.6 0.4,-0.4 0.6,-0.9 0.6,-1.6 0,-0.6 -0.2,-1.1 -0.6,-1.5 -0.4,-0.4 -0.9,-0.6 -1.6,-0.6 h -2.8 v 4.2 h 2.8 z"
         class="letter"
         id="letter-r"
         inkscape:connector-curvature="0" />
      <path
         style="visibility:inherit"
         d="m 239.2,131.4 v 13 h 6.8 v 2.6 h -9.7 v -15.5 h 2.9 z"
         class="letter"
         id="letter-l"
         inkscape:connector-curvature="0" />
      <path
         style="visibility:inherit"
         d="M 256.6,131.4 V 147 h -2.9 v -15.5 h 2.9 z"
         class="letter"
         id="letter-i"
         inkscape:connector-curvature="0" />
      <path
         style="visibility:inherit"
         d="m 276.7,147 h -2.9 l -5.7,-9.7 V 147 H 265 v -15.5 h 2.9 l 5.7,9.7 v -9.7 h 2.9 V 147 z"
         class="letter"
         id="letter-n"
         inkscape:connector-curvature="0" />
      <path
         style="visibility:inherit"
         d="m 287.9,142.6 v 4.3 H 285 v -15.5 h 2.9 v 7.2 l 5.4,-7.2 h 3.5 l -5,6.2 5.4,9.3 h -3.4 L 290,140 z"
         class="letter"
         id="letter-k"
         inkscape:connector-curvature="0" />
    </g>
    <g
       id="logo">
      <g
         clip-path="url(#mask_x1)"
         id="x1">
        <path
           id="path17"
           style="visibility:inherit"
           d="m 168.4,112.2 -3.9,3.8 H 199 C 292,22.6 425.9,6 460,3.2 V 3.1 C 273.9,13.8 187.9,93.4 168.4,112.2"
           class="logo_x"
           inkscape:connector-curvature="0" />
      </g>
      <g
         clip-path="url(#mask_x2)"
         id="x2">
        <path
           id="path20"
           style="visibility:inherit"
           d="m 263.2,116 h 34.1 L 250.1,81.2 c -5.7,3.9 -11.6,8.3 -17.2,12.7 z"
           class="logo_x"
           inkscape:connector-curvature="0" />
        <path
           id="path22"
           style="visibility:inherit"
           d="m 200.9,44.6 h -34.1 l 40,29.3 c 5.8,-3.9 12.5,-8.1 18.7,-11.7 z"
           class="logo_x"
           inkscape:connector-curvature="0" />
      </g>
    </g>
  </g>
</svg>
